<svg width="108" height="31" fill="none" xmlns="http://www.w3.org/2000/svg"><path d="M0 12.1v2.419h2.31v-2.42H0zM10.949 4.255c-1.467 0-2.652.665-3.396 1.633h-.08V0H5.564v14.519h1.909v-4.98c0-1.997 1.246-3.429 3.074-3.429 1.728 0 2.733 1.29 2.733 3.025v5.384h1.909V8.792c0-2.763-1.708-4.537-4.24-4.537zM25.023 4.537h-4.52V1.008h-1.91v3.53h-1.808v1.854h1.808v5.627c0 1.613.904 2.5 2.532 2.5h3.898v-1.875h-3.516c-.643 0-1.005-.363-1.005-.988V6.392h4.521V4.537zM38.659 4.275c-1.527 0-2.693.746-3.336 1.936h-.06c-.583-1.17-1.668-1.936-3.154-1.936-1.327 0-2.331.706-2.934 1.694h-.08V4.537h-1.829v9.982h1.909V9.397c0-1.875.984-3.247 2.471-3.287 1.407-.04 2.23.968 2.23 2.48v5.929h1.91V9.236c0-2.239 1.326-3.126 2.471-3.126 1.386 0 2.21.968 2.21 2.48v5.929h1.909v-6.13c0-2.42-1.366-4.114-3.717-4.114zM44.963 11.938c0 1.633.924 2.581 2.632 2.581h1.889v-1.855h-1.608c-.643 0-1.005-.363-1.005-.988V0h-1.908v11.938zM27.174 18.511h-.08c-.745-1.002-1.953-1.704-3.564-1.724-2.959-.04-5.072 2.145-5.072 5.232 0 3.108 2.154 5.293 5.052 5.253 1.65-.02 2.838-.762 3.583-1.825h.08v1.544h1.893v-9.923h-1.892v1.443zm-3.382 6.916c-2.093 0-3.422-1.523-3.422-3.408 0-1.884 1.329-3.408 3.422-3.408 2.033 0 3.362 1.524 3.362 3.408 0 1.865-1.329 3.408-3.362 3.408zM41.562 20.676c-.463-2.245-2.456-3.89-5.073-3.89-3.16 0-5.273 2.306-5.273 5.233 0 2.927 2.113 5.253 5.273 5.253 2.617 0 4.61-1.684 5.073-3.95h-1.993c-.402 1.263-1.59 2.125-3.06 2.125-2.053 0-3.381-1.543-3.381-3.428 0-1.884 1.328-3.408 3.382-3.408 1.53 0 2.657.902 3.06 2.065h1.992zM51.785 18.511h-.08c-.745-1.002-1.953-1.704-3.564-1.724-2.959-.04-5.072 2.145-5.072 5.232 0 3.108 2.154 5.293 5.052 5.253 1.65-.02 2.838-.762 3.583-1.825h.08v1.544h1.893v-9.923h-1.892v1.443zm-3.382 6.916c-2.093 0-3.422-1.523-3.422-3.408 0-1.884 1.328-3.408 3.422-3.408 2.033 0 3.361 1.524 3.361 3.408 0 1.865-1.328 3.408-3.36 3.408zM64.542 18.611h-.08c-.745-1.062-1.993-1.804-3.583-1.824-2.899-.04-5.053 2.145-5.053 5.252 0 3.087 2.114 5.272 5.073 5.232 1.57-.02 2.818-.721 3.543-1.724h.1v1.444h1.892V12.557h-1.892v6.054zm-3.381 6.836c-2.094 0-3.422-1.523-3.422-3.408 0-1.884 1.328-3.408 3.422-3.408 2.033 0 3.361 1.544 3.361 3.408 0 1.885-1.328 3.408-3.361 3.408zM73.639 16.787c-3.06 0-5.153 2.345-5.153 5.252 0 2.827 1.972 5.232 5.193 5.232 2.335 0 4.207-1.262 4.871-3.367h-1.993c-.442.942-1.51 1.543-2.797 1.543-1.812 0-3.1-1.203-3.241-2.746h8.232c.262-3.308-1.811-5.914-5.112-5.914zm-.04 1.824c1.59 0 2.777.982 3.08 2.406h-6.12c.282-1.404 1.47-2.406 3.04-2.406zM92.317 16.807c-1.53 0-2.697.742-3.34 1.924h-.061c-.584-1.162-1.67-1.924-3.16-1.924-1.329 0-2.335.702-2.94 1.684h-.08v-1.423h-1.832v9.923h1.913v-5.092c0-1.864.986-3.228 2.476-3.268 1.408-.04 2.234.962 2.234 2.466v5.894h1.912v-5.253c0-2.225 1.329-3.107 2.476-3.107 1.389 0 2.214.962 2.214 2.466v5.894h1.912v-6.095c0-2.405-1.368-4.089-3.724-4.089zM102.887 25.407l-3.422-8.34h-2.113l4.549 10.866-.02.04c-.322.822-.685 1.123-1.57 1.123h-2.355V31h2.355c1.731 0 2.657-.782 3.301-2.466L108 17.068h-1.953l-3.16 8.339z" fill="#fff"/></svg>